<svg width="111" height="18" viewBox="0 0 111 18" fill="none" xmlns="http://www.w3.org/2000/svg">
<path d="M13.7976 10.74C13.6033 10.9283 13.5141 11.2005 13.5583 11.4675L14.2251 15.1575C14.2813 15.4703 14.1493 15.7868 13.8876 15.9675C13.6311 16.155 13.2898 16.1775 13.0101 16.0275L9.68831 14.295C9.57281 14.2335 9.44456 14.2005 9.31331 14.1968H9.11006C9.03956 14.2073 8.97056 14.2298 8.90756 14.2643L5.58506 16.005C5.42081 16.0875 5.23481 16.1168 5.05256 16.0875C4.60856 16.0035 4.31231 15.5805 4.38506 15.1343L5.05256 11.4443C5.09681 11.175 5.00756 10.9013 4.81331 10.71L2.10506 8.085C1.87856 7.86525 1.79981 7.53525 1.90331 7.2375C2.00381 6.9405 2.26031 6.72375 2.57006 6.675L6.29756 6.13425C6.58106 6.105 6.83006 5.9325 6.95756 5.6775L8.60006 2.31C8.63906 2.235 8.68931 2.166 8.75006 2.1075L8.81756 2.055C8.85281 2.016 8.89331 1.98375 8.93831 1.9575L9.02006 1.9275L9.14756 1.875H9.46331C9.74531 1.90425 9.99356 2.073 10.1233 2.325L11.7876 5.6775C11.9076 5.92275 12.1408 6.093 12.4101 6.13425L16.1376 6.675C16.4526 6.72 16.7158 6.9375 16.8201 7.2375C16.9183 7.53825 16.8336 7.86825 16.6026 8.085L13.7976 10.74Z" fill="#F6973F"/>
<path d="M36.7976 10.74C36.6033 10.9283 36.5141 11.2005 36.5583 11.4675L37.2251 15.1575C37.2813 15.4703 37.1493 15.7868 36.8876 15.9675C36.6311 16.155 36.2898 16.1775 36.0101 16.0275L32.6883 14.295C32.5728 14.2335 32.4446 14.2005 32.3133 14.1968H32.1101C32.0396 14.2073 31.9706 14.2298 31.9076 14.2643L28.5851 16.005C28.4208 16.0875 28.2348 16.1168 28.0526 16.0875C27.6086 16.0035 27.3123 15.5805 27.3851 15.1343L28.0526 11.4443C28.0968 11.175 28.0076 10.9013 27.8133 10.71L25.1051 8.085C24.8786 7.86525 24.7998 7.53525 24.9033 7.2375C25.0038 6.9405 25.2603 6.72375 25.5701 6.675L29.2976 6.13425C29.5811 6.105 29.8301 5.9325 29.9576 5.6775L31.6001 2.31C31.6391 2.235 31.6893 2.166 31.7501 2.1075L31.8176 2.055C31.8528 2.016 31.8933 1.98375 31.9383 1.9575L32.0201 1.9275L32.1476 1.875H32.4633C32.7453 1.90425 32.9936 2.073 33.1233 2.325L34.7876 5.6775C34.9076 5.92275 35.1408 6.093 35.4101 6.13425L39.1376 6.675C39.4526 6.72 39.7158 6.9375 39.8201 7.2375C39.9183 7.53825 39.8336 7.86825 39.6026 8.085L36.7976 10.74Z" fill="#F6973F"/>
<path d="M59.7976 10.74C59.6033 10.9283 59.5141 11.2005 59.5583 11.4675L60.2251 15.1575C60.2813 15.4703 60.1493 15.7868 59.8876 15.9675C59.6311 16.155 59.2898 16.1775 59.0101 16.0275L55.6883 14.295C55.5728 14.2335 55.4446 14.2005 55.3133 14.1968H55.1101C55.0396 14.2073 54.9706 14.2298 54.9076 14.2643L51.5851 16.005C51.4208 16.0875 51.2348 16.1168 51.0526 16.0875C50.6086 16.0035 50.3123 15.5805 50.3851 15.1343L51.0526 11.4443C51.0968 11.175 51.0076 10.9013 50.8133 10.71L48.1051 8.085C47.8786 7.86525 47.7998 7.53525 47.9033 7.2375C48.0038 6.9405 48.2603 6.72375 48.5701 6.675L52.2976 6.13425C52.5811 6.105 52.8301 5.9325 52.9576 5.6775L54.6001 2.31C54.6391 2.235 54.6893 2.166 54.7501 2.1075L54.8176 2.055C54.8528 2.016 54.8933 1.98375 54.9383 1.9575L55.0201 1.9275L55.1476 1.875H55.4633C55.7453 1.90425 55.9936 2.073 56.1233 2.325L57.7876 5.6775C57.9076 5.92275 58.1408 6.093 58.4101 6.13425L62.1376 6.675C62.4526 6.72 62.7158 6.9375 62.8201 7.2375C62.9183 7.53825 62.8336 7.86825 62.6026 8.085L59.7976 10.74Z" fill="#F6973F"/>
<path d="M82.7976 10.74C82.6033 10.9283 82.5141 11.2005 82.5583 11.4675L83.2251 15.1575C83.2813 15.4703 83.1493 15.7868 82.8876 15.9675C82.6311 16.155 82.2898 16.1775 82.0101 16.0275L78.6883 14.295C78.5728 14.2335 78.4446 14.2005 78.3133 14.1968H78.1101C78.0396 14.2073 77.9706 14.2298 77.9076 14.2643L74.5851 16.005C74.4208 16.0875 74.2348 16.1168 74.0526 16.0875C73.6086 16.0035 73.3123 15.5805 73.3851 15.1343L74.0526 11.4443C74.0968 11.175 74.0076 10.9013 73.8133 10.71L71.1051 8.085C70.8786 7.86525 70.7998 7.53525 70.9033 7.2375C71.0038 6.9405 71.2603 6.72375 71.5701 6.675L75.2976 6.13425C75.5811 6.105 75.8301 5.9325 75.9576 5.6775L77.6001 2.31C77.6391 2.235 77.6893 2.166 77.7501 2.1075L77.8176 2.055C77.8528 2.016 77.8933 1.98375 77.9383 1.9575L78.0201 1.9275L78.1476 1.875H78.4633C78.7453 1.90425 78.9936 2.073 79.1233 2.325L80.7876 5.6775C80.9076 5.92275 81.1408 6.093 81.4101 6.13425L85.1376 6.675C85.4526 6.72 85.7158 6.9375 85.8201 7.2375C85.9183 7.53825 85.8336 7.86825 85.6026 8.085L82.7976 10.74Z" fill="#F6973F"/>
<path opacity="0.3" d="M105.798 10.74C105.603 10.9283 105.514 11.2005 105.558 11.4675L106.225 15.1575C106.281 15.4703 106.149 15.7868 105.888 15.9675C105.631 16.155 105.29 16.1775 105.01 16.0275L101.688 14.295C101.573 14.2335 101.445 14.2005 101.313 14.1968H101.11C101.04 14.2073 100.971 14.2298 100.908 14.2643L97.5851 16.005C97.4208 16.0875 97.2348 16.1168 97.0526 16.0875C96.6086 16.0035 96.3123 15.5805 96.3851 15.1343L97.0526 11.4443C97.0968 11.175 97.0076 10.9013 96.8133 10.71L94.1051 8.085C93.8786 7.86525 93.7998 7.53525 93.9033 7.2375C94.0038 6.9405 94.2603 6.72375 94.5701 6.675L98.2976 6.13425C98.5811 6.105 98.8301 5.9325 98.9576 5.6775L100.6 2.31C100.639 2.235 100.689 2.166 100.75 2.1075L100.818 2.055C100.853 2.016 100.893 1.98375 100.938 1.9575L101.02 1.9275L101.148 1.875H101.463C101.745 1.90425 101.994 2.073 102.123 2.325L103.788 5.6775C103.908 5.92275 104.141 6.093 104.41 6.13425L108.138 6.675C108.453 6.72 108.716 6.9375 108.82 7.2375C108.918 7.53825 108.834 7.86825 108.603 8.085L105.798 10.74Z" fill="#F6973F"/>
</svg>
