<svg width="20" height="21" viewBox="0 0 20 21" fill="none" xmlns="http://www.w3.org/2000/svg">
<path fill-rule="evenodd" clip-rule="evenodd" d="M9.99996 0.25C4.48608 0.25 0 4.73493 0 10.25C0 15.764 4.48608 20.2494 9.99996 20.2494C15.5138 20.2494 20 15.764 20 10.25C20 4.73493 15.5138 0.25 9.99996 0.25ZM15.575 6.91503L9.42112 13.8381C9.2696 14.008 9.05846 14.0957 8.84571 14.0957C8.67691 14.0957 8.50731 14.0403 8.3654 13.9279L4.51916 10.8505C4.18761 10.5855 4.13384 10.1011 4.39921 9.7688C4.66426 9.43763 5.1488 9.38332 5.48035 9.6489L8.7561 12.2693L14.4249 5.89245C14.7066 5.57418 15.1934 5.54568 15.5107 5.82849C15.8284 6.11074 15.8573 6.59676 15.575 6.91503Z" fill="#5243C2"/>
</svg>
