<svg width="110" height="111" viewBox="0 0 110 111" fill="none" xmlns="http://www.w3.org/2000/svg">
<g clip-path="url(#clip0_2_648)">
<path d="M75 0.25H35C15.67 0.25 0 15.92 0 35.25V75.25C0 94.58 15.67 110.25 35 110.25H75C94.33 110.25 110 94.58 110 75.25V35.25C110 15.92 94.33 0.25 75 0.25Z" fill="url(#paint0_linear_2_648)"/>
<g clip-path="url(#clip1_2_648)">
<path d="M67.6875 38.6875V36.25H43.3125V38.6875H36V47.2188C36 54.1281 41.2547 59.8304 47.9771 60.5464C49.4269 62.758 51.1529 64.3061 53.0625 65.0302V67.9375C53.0625 69.2836 51.9712 70.375 50.625 70.375C47.9327 70.375 45.75 72.5575 45.75 75.25H65.25C65.25 72.5575 63.0673 70.375 60.375 70.375C59.0288 70.375 57.9375 69.2836 57.9375 67.9375V65.0459C59.8512 64.3284 61.572 62.7594 63.0229 60.5464C69.7453 59.8304 75 54.1281 75 47.2188V38.6875H67.6875ZM40.875 47.2188V43.5625H43.3701C43.5563 47.6746 44.2153 51.4214 45.2391 54.6166C42.6482 53.1506 40.875 50.4016 40.875 47.2188H40.875ZM45.75 41.125V38.6875H48.1875V41.125C48.1875 52.3099 51.9104 61.5209 56.7188 62.8731C56.3187 62.9856 55.9137 63.0625 55.5 63.0625C50.1151 63.0625 45.75 53.2406 45.75 41.125V41.125ZM70.125 47.2188C70.125 50.4016 68.3518 53.1506 65.7609 54.6166C66.7847 51.4214 67.4436 47.6746 67.6299 43.5625H70.125V47.2188H70.125Z" fill="white"/>
</g>
</g>
<defs>
<linearGradient id="paint0_linear_2_648" x1="98.5" y1="99.75" x2="22.5" y2="0.250002" gradientUnits="userSpaceOnUse">
<stop stop-color="#FF9066"/>
<stop offset="1" stop-color="#FF9066" stop-opacity="0.5"/>
</linearGradient>
<clipPath id="clip0_2_648">
<rect width="110" height="110" fill="white" transform="translate(0 0.25)"/>
</clipPath>
<clipPath id="clip1_2_648">
<rect width="39" height="39" fill="white" transform="translate(36 36.25)"/>
</clipPath>
</defs>
</svg>
