<svg width="110" height="111" viewBox="0 0 110 111" fill="none" xmlns="http://www.w3.org/2000/svg">
<g clip-path="url(#clip0_2_634)">
<path d="M75 0.25H35C15.67 0.25 0 15.92 0 35.25V75.25C0 94.58 15.67 110.25 35 110.25H75C94.33 110.25 110 94.58 110 75.25V35.25C110 15.92 94.33 0.25 75 0.25Z" fill="url(#paint0_linear_2_634)"/>
<path d="M79.4789 66.839L79.3599 63.1041C79.351 62.7925 79.2807 62.4857 79.153 62.2013C79.0253 61.917 78.8427 61.6606 78.6158 61.4469C78.3888 61.2333 78.1219 61.0666 77.8304 60.9562C77.5389 60.8459 77.2285 60.7941 76.9169 60.804L76.41 60.819C75.4554 56.7266 73.3105 53.0084 70.2459 50.1331L70.2139 50.1031C68.3248 48.318 66.1258 46.8926 63.7249 45.897L70.274 45.6971C70.6496 46.6654 71.3556 47.4697 72.2672 47.9676C73.1787 48.4654 74.237 48.6248 75.2547 48.4174C76.2724 48.21 77.184 47.6492 77.8281 46.8344C78.4721 46.0196 78.8073 45.0031 78.774 43.965C78.7379 42.7974 78.2406 41.6917 77.3909 40.8901C76.9708 40.4919 76.4755 40.1816 75.9339 39.9772C75.3923 39.7729 74.8154 39.6786 74.237 39.7C73.0709 39.7336 71.966 40.229 71.165 41.0771C70.7178 41.5539 70.381 42.1234 70.1789 42.745L58.3879 43.0981L58.3749 42.698C58.3661 42.3864 58.2959 42.0796 58.1683 41.7952C58.0406 41.5108 57.858 41.2544 57.631 41.0407C57.4041 40.827 57.1372 40.6603 56.8456 40.55C56.5541 40.4397 56.2435 40.388 55.9319 40.398L52.1579 40.5031C51.8469 40.5115 51.5407 40.5812 51.2569 40.7085C50.9731 40.8358 50.7173 41.0182 50.5042 41.2448C50.2911 41.4714 50.1251 41.738 50.0156 42.0291C49.906 42.3202 49.8551 42.6302 49.8659 42.9411L49.879 43.341L38.088 43.695C37.7124 42.7266 37.0063 41.9223 36.0948 41.4245C35.1832 40.9266 34.1249 40.7673 33.1071 40.9747C32.0894 41.182 31.1778 41.7428 30.5338 42.5577C29.8897 43.3725 29.5547 44.3889 29.588 45.427C29.6202 46.4634 30.0174 47.455 30.7095 48.2271C31.4016 48.9992 32.3441 49.502 33.3708 49.6469C34.3975 49.7918 35.4423 49.5695 36.3211 49.0192C37.1999 48.4689 37.856 47.626 38.1739 46.6391L44.723 46.439C41.6703 47.9336 39.0164 50.1323 36.9802 52.8538C34.9439 55.5753 33.5834 58.7417 33.0109 62.0921L32.3809 62.111C31.7518 62.1311 31.1565 62.4 30.7253 62.8586C30.2941 63.3171 30.0624 63.9279 30.081 64.5571L30.1999 68.3071C30.2087 68.6187 30.2789 68.9255 30.4066 69.2099C30.5342 69.4943 30.7168 69.7507 30.9438 69.9644C31.1708 70.1781 31.4377 70.3448 31.7293 70.4551C32.0209 70.5654 32.3313 70.6171 32.6429 70.6071L36.394 70.495C37.023 70.4747 37.6183 70.2057 38.0494 69.7472C38.4805 69.2888 38.7122 68.6781 38.6939 68.049L38.5749 64.298C38.5662 63.9864 38.4961 63.6795 38.3685 63.3951C38.2409 63.1106 38.0584 62.8541 37.8314 62.6404C37.6044 62.4267 37.3374 62.2599 37.0457 62.1497C36.7541 62.0395 36.4435 61.988 36.1319 61.9981H36.024C36.7475 58.4854 38.4749 55.258 40.9968 52.7079C43.5186 50.1578 46.7264 48.3945 50.2309 47.632C50.355 47.8992 50.5299 48.1397 50.7459 48.34C50.973 48.5538 51.2401 48.7206 51.5318 48.8307C51.8236 48.9409 52.1343 48.9924 52.446 48.9821L56.197 48.87C56.656 48.8555 57.101 48.7079 57.4777 48.4451C57.8545 48.1824 58.1467 47.8158 58.3189 47.3901C61.8684 47.9409 65.1826 49.5077 67.8609 51.9012C70.5392 54.2947 72.4672 57.4126 73.4119 60.8781L73.181 60.8851C72.552 60.9054 71.9567 61.1744 71.5256 61.6329C71.0945 62.0913 70.8626 62.702 70.8809 63.3311L70.9999 67.0811C71.0087 67.3927 71.079 67.6995 71.2066 67.9839C71.3343 68.2683 71.5169 68.5248 71.7438 68.7385C71.9708 68.9521 72.2377 69.1189 72.5292 69.2292C72.8208 69.3395 73.1314 69.391 73.4429 69.381L77.1939 69.2691C77.5037 69.2602 77.8087 69.1901 78.0914 69.063C78.374 68.936 78.6288 68.7544 78.8411 68.5286C79.0534 68.3028 79.219 68.0374 79.3284 67.7475C79.4379 67.4575 79.4891 67.1488 79.4789 66.839ZM35.7259 67.5971L33.097 67.6761L33.0129 65.047L35.6419 64.9681L35.7259 67.5971ZM74.3089 42.637C74.5966 42.6288 74.8803 42.7062 75.1241 42.8592C75.3679 43.0122 75.561 43.234 75.6788 43.4966C75.7966 43.7593 75.8338 44.0508 75.7859 44.3346C75.7381 44.6185 75.6072 44.8818 75.4097 45.0912C75.2123 45.3007 74.9572 45.4469 74.6767 45.5114C74.3962 45.5759 74.1029 45.5559 73.8338 45.4538C73.5647 45.3517 73.3318 45.1722 73.1647 44.9378C72.9976 44.7034 72.9038 44.4247 72.895 44.137C72.8896 43.9455 72.9221 43.7549 72.9908 43.5761C73.0594 43.3973 73.1629 43.2337 73.295 43.095C73.56 42.8156 73.924 42.6511 74.3089 42.637ZM34.0259 46.7751C33.7382 46.7832 33.4546 46.7059 33.2108 46.5529C32.9669 46.3999 32.774 46.1782 32.6562 45.9156C32.5384 45.653 32.501 45.3613 32.5489 45.0774C32.5968 44.7936 32.7277 44.5303 32.9251 44.3208C33.1225 44.1114 33.3776 43.9652 33.6581 43.9007C33.9386 43.8361 34.232 43.8562 34.5012 43.9583C34.7703 44.0604 35.003 44.2401 35.1701 44.4744C35.3372 44.7088 35.4311 44.9874 35.4399 45.2751C35.4457 45.4666 35.4139 45.6573 35.3459 45.8365C35.2779 46.0156 35.1752 46.1796 35.0438 46.319C34.9123 46.4584 34.7547 46.5707 34.5799 46.6491C34.4051 46.7275 34.2165 46.7706 34.025 46.776L34.0259 46.7751ZM52.899 46.0561L52.8149 43.427L55.4439 43.3481L55.4859 44.6551L55.5279 45.9621L52.899 46.0561ZM73.905 66.444L73.821 63.815L76.4499 63.7371L76.534 66.366L73.905 66.444Z" fill="white"/>
</g>
<defs>
<linearGradient id="paint0_linear_2_634" x1="94.5" y1="101.25" x2="18.5" y2="7.75" gradientUnits="userSpaceOnUse">
<stop stop-color="#25D9D9"/>
<stop offset="1" stop-color="#25D9D9" stop-opacity="0.5"/>
</linearGradient>
<clipPath id="clip0_2_634">
<rect width="110" height="110" fill="white" transform="translate(0 0.25)"/>
</clipPath>
</defs>
</svg>
